<svg width="444" height="80" viewBox="0 0 444 80" fill="none" xmlns="http://www.w3.org/2000/svg">
<path d="M70.1563 78.2765L62.7098 71.0428C59.4476 73.3831 55.8662 75.1916 51.9656 76.4681C48.0651 77.6737 44.0227 78.2765 39.8385 78.2765C34.8742 78.2765 30.0872 77.3901 25.4775 75.6171C20.9387 73.8441 16.8963 71.291 13.3503 67.9579C9.80441 64.6247 7.00312 60.5823 4.94647 55.8307C2.88983 51.0792 1.8615 45.7248 1.8615 39.7676C1.8615 33.8105 2.88983 28.4561 4.94647 23.7045C7.00312 18.953 9.80441 14.9106 13.3503 11.5774C16.8963 8.24425 20.9387 5.69117 25.4775 3.9182C30.0872 2.14523 34.8742 1.25875 39.8385 1.25875C44.8737 1.25875 49.6608 2.14523 54.1996 3.9182C58.8093 5.69117 62.8871 8.24425 66.433 11.5774C69.979 14.9106 72.7803 18.953 74.8369 23.7045C76.8936 28.4561 77.9219 33.8105 77.9219 39.7676C77.9219 44.0937 77.3545 48.1006 76.2198 51.7884C75.1561 55.4762 73.5958 58.8093 71.5392 61.7879L79.092 68.9153L70.1563 78.2765ZM15.9034 39.7676C15.9034 45.6539 17.0736 50.5473 19.4139 54.4478C21.7542 58.3484 24.7683 61.256 28.456 63.1708C32.1438 65.0147 35.938 65.9367 39.8385 65.9367C42.5334 65.9367 45.0156 65.653 47.285 65.0856C49.5544 64.4474 51.6465 63.49 53.5613 62.2134L42.0725 51.1501L51.0082 41.7888L61.7524 52.3203C62.4616 50.6891 62.9935 48.8807 63.3481 46.895C63.7027 44.9093 63.88 42.5335 63.88 39.7676C63.88 33.8105 62.7098 28.8816 60.3695 24.9811C58.0292 21.0805 55.0151 18.2083 51.3274 16.3644C47.6396 14.4496 43.81 13.4922 39.8385 13.4922C35.938 13.4922 32.1438 14.4496 28.456 16.3644C24.7683 18.2083 21.7542 21.0805 19.4139 24.9811C17.0736 28.8816 15.9034 33.8105 15.9034 39.7676ZM89.7041 77V2.53528H103.214V30.4064C105.058 27.9242 107.505 26.0803 110.554 24.8747C113.675 23.5982 116.795 22.9599 119.916 22.9599C126.015 22.9599 131.014 24.9456 134.915 28.9171C138.815 32.8176 140.766 38.4911 140.766 45.9376V77H127.256V47.746C127.256 43.7746 126.227 40.5832 124.171 38.172C122.185 35.6898 119.242 34.4487 115.341 34.4487C111.441 34.4487 108.427 35.6898 106.299 38.172C104.242 40.5832 103.214 43.7746 103.214 47.746V77H89.7041ZM151.565 77V24.2364H165.076V32.1084C166.919 29.1298 169.26 26.8604 172.096 25.3002C174.933 23.74 178.089 22.9599 181.564 22.9599V37.2146H177.947C173.621 37.2146 170.394 38.2429 168.267 40.2995C166.139 42.3562 165.076 45.7957 165.076 50.6182V77H151.565ZM214.757 78.2765C209.439 78.2765 204.687 77.1418 200.503 74.8724C196.389 72.5321 193.163 69.2699 190.822 65.0856C188.482 60.9014 187.312 56.079 187.312 50.6182C187.312 44.8738 188.553 39.9449 191.035 35.8317C193.588 31.6474 196.957 28.4561 201.141 26.2576C205.396 24.0591 210.077 22.9599 215.183 22.9599C220.502 22.9599 225.253 24.1301 229.438 26.4704C233.622 28.7398 236.92 31.9311 239.331 36.0444C241.813 40.1577 243.054 45.0156 243.054 50.6182C243.054 55.9371 241.848 60.6887 239.437 64.8729C237.026 69.0571 233.693 72.3548 229.438 74.7661C225.253 77.1064 220.36 78.2765 214.757 78.2765ZM214.97 66.4686C217.807 66.4686 220.254 65.7594 222.31 64.341C224.438 62.8517 226.104 60.9014 227.31 58.4902C228.516 56.008 229.118 53.3131 229.118 50.4055C229.118 47.0723 228.445 44.2355 227.097 41.8952C225.821 39.5549 224.119 37.7819 221.991 36.5763C219.864 35.3707 217.523 34.7679 214.97 34.7679C212.204 34.7679 209.758 35.4416 207.63 36.7891C205.573 38.1365 203.942 40.0159 202.737 42.4271C201.602 44.7674 201.035 47.4978 201.035 50.6182C201.035 53.7386 201.637 56.5045 202.843 58.9157C204.12 61.327 205.822 63.2063 207.949 64.5538C210.077 65.8303 212.417 66.4686 214.97 66.4686ZM253.057 77V24.2364H266.567V30.4064C268.411 27.9242 270.858 26.0803 273.907 24.8747C277.027 23.5982 280.148 22.9599 283.268 22.9599C289.367 22.9599 294.367 24.9456 298.268 28.9171C302.168 32.8176 304.118 38.4911 304.118 45.9376V77H290.608V47.746C290.608 43.7746 289.58 40.5832 287.523 38.172C285.538 35.6898 282.595 34.4487 278.694 34.4487C274.794 34.4487 271.779 35.6898 269.652 38.172C267.595 40.5832 266.567 43.7746 266.567 47.746V77H253.057ZM335.556 78.2765C331.017 78.2765 327.152 77.3191 323.96 75.4043C320.769 73.4186 318.322 70.7237 316.62 67.3196C314.918 63.8446 314.067 59.9086 314.067 55.5116V24.2364H327.577V53.4904C327.577 57.391 328.57 60.5823 330.556 63.0645C332.613 65.5466 335.591 66.7877 339.492 66.7877C343.534 66.7877 346.548 65.5821 348.534 63.1708C350.52 60.7596 351.512 57.5328 351.512 53.4904V24.2364H365.129V77H351.512V70.8301C349.739 73.2413 347.399 75.0852 344.491 76.3617C341.655 77.6383 338.676 78.2765 335.556 78.2765ZM398.374 78.2765C394.403 78.2765 390.68 77.5674 387.205 76.149C383.73 74.6597 380.858 72.5676 378.588 69.8727C376.39 67.1777 375.184 64.0219 374.971 60.405H388.588C388.942 62.6744 390.042 64.4474 391.885 65.7239C393.8 67.0005 395.928 67.6387 398.268 67.6387C400.254 67.6387 402.098 67.2132 403.8 66.3622C405.573 65.4402 406.459 64.0219 406.459 62.1071C406.459 60.6178 405.821 59.4476 404.544 58.5966C403.268 57.7456 401.779 57.0718 400.077 56.5754C398.374 56.079 396.814 55.6534 395.396 55.2989C391.85 54.4478 388.623 53.455 385.715 52.3203C382.808 51.1146 380.503 49.4835 378.801 47.4269C377.099 45.2993 376.248 42.498 376.248 39.023C376.248 35.6189 377.205 32.7112 379.12 30.3C381.106 27.8887 383.694 26.0803 386.886 24.8747C390.148 23.5982 393.658 22.9599 397.417 22.9599C403.303 22.9599 408.268 24.4492 412.31 27.4278C416.352 30.4064 418.551 34.8033 418.905 40.6187H406.034C405.821 38.3493 404.864 36.6472 403.161 35.5125C401.53 34.3069 399.474 33.7041 396.992 33.7041C395.006 33.7041 393.233 34.0587 391.673 34.7679C390.112 35.4771 389.332 36.8245 389.332 38.8102C389.332 40.2286 389.971 41.3988 391.247 42.3207C392.524 43.1717 394.048 43.8809 395.821 44.4483C397.594 44.9447 399.155 45.3702 400.502 45.7248C404.19 46.6468 407.417 47.7105 410.182 48.9162C413.019 50.1218 415.253 51.7529 416.884 53.8096C418.515 55.8662 419.366 58.632 419.437 62.1071C419.437 65.5821 418.444 68.5252 416.459 70.9364C414.544 73.3477 411.991 75.1916 408.8 76.4681C405.608 77.6737 402.133 78.2765 398.374 78.2765Z" fill="#080A1F"/>
<path d="M426.951 77V62.6389H441.738V77H426.951Z" fill="#6B95FF"/>
</svg>
