<svg width="368" height="100" viewBox="0 0 368 100" fill="none" xmlns="http://www.w3.org/2000/svg">
<path d="M56.8603 64.1229L50.6606 58.1003C47.9445 60.0488 44.9628 61.5544 41.7153 62.6172C38.4678 63.621 35.1022 64.1229 31.6186 64.1229C27.4854 64.1229 23.4999 63.3848 19.662 61.9087C15.8831 60.4325 12.5175 58.3069 9.56529 55.5318C6.61304 52.7567 4.28076 49.3911 2.56846 45.4351C0.856152 41.4791 0 37.0212 0 32.0614C0 27.1017 0.856152 22.6438 2.56846 18.6877C4.28076 14.7317 6.61304 11.3662 9.56529 8.59105C12.5175 5.81593 15.8831 3.69031 19.662 2.21419C23.4999 0.738062 27.4854 0 31.6186 0C35.8108 0 39.7963 0.738062 43.5752 2.21419C47.4131 3.69031 50.8082 5.81593 53.7605 8.59105C56.7127 11.3662 59.045 14.7317 60.7573 18.6877C62.4696 22.6438 63.3258 27.1017 63.3258 32.0614C63.3258 35.6632 62.8534 38.9992 61.9087 42.0696C61.023 45.1399 59.724 47.915 58.0117 50.3949L64.3 56.3289L56.8603 64.1229ZM11.6909 32.0614C11.6909 36.9622 12.6652 41.0363 14.6136 44.2837C16.5621 47.5312 19.0715 49.9521 22.1419 51.5463C25.2122 53.0814 28.3711 53.849 31.6186 53.849C33.8623 53.849 35.9289 53.6129 37.8183 53.1405C39.7078 52.6091 41.4496 51.812 43.0438 50.7492L33.4785 41.5382L40.9182 33.7442L49.8635 42.5124C50.4539 41.1544 50.8968 39.6487 51.192 37.9955C51.4872 36.3422 51.6348 34.3642 51.6348 32.0614C51.6348 27.1017 50.6606 22.998 48.7121 19.7505C46.7636 16.5031 44.2542 14.1118 41.1839 12.5766C38.1135 10.9824 34.9251 10.1853 31.6186 10.1853C28.3711 10.1853 25.2122 10.9824 22.1419 12.5766C19.0715 14.1118 16.5621 16.5031 14.6136 19.7505C12.6652 22.998 11.6909 27.1017 11.6909 32.0614Z" fill="#080A1F"/>
<path d="M73.1353 63.0601V1.06281H84.3834V24.2675C85.9185 22.2009 87.9556 20.6657 90.4945 19.662C93.0925 18.5992 95.6905 18.0678 98.2885 18.0678C103.366 18.0678 107.529 19.721 110.776 23.0275C114.024 26.275 115.648 30.9986 115.648 37.1983V63.0601H104.4V38.704C104.4 35.3975 103.543 32.7404 101.831 30.7329C100.178 28.6663 97.7275 27.6331 94.4801 27.6331C91.2326 27.6331 88.7232 28.6663 86.9518 30.7329C85.2395 32.7404 84.3834 35.3975 84.3834 38.704V63.0601H73.1353Z" fill="#080A1F"/>
<path d="M124.639 63.0601V19.1306H135.887V25.6846C137.423 23.2047 139.371 21.3152 141.733 20.0163C144.095 18.7173 146.722 18.0678 149.615 18.0678V29.9358H146.604C143.002 29.9358 140.316 30.792 138.544 32.5043C136.773 34.2166 135.887 37.0803 135.887 41.0953V63.0601H124.639Z" fill="#080A1F"/>
<path d="M177.251 64.1229C172.823 64.1229 168.867 63.1781 165.383 61.2887C161.959 59.3402 159.272 56.6241 157.324 53.1405C155.375 49.6568 154.401 45.6418 154.401 41.0953C154.401 36.3127 155.434 32.209 157.501 28.7844C159.626 25.3008 162.431 22.6438 165.915 20.8134C169.457 18.983 173.354 18.0678 177.605 18.0678C182.034 18.0678 185.99 19.042 189.474 20.9905C192.957 22.8799 195.703 25.537 197.71 28.9616C199.777 32.3862 200.81 36.4308 200.81 41.0953C200.81 45.5237 199.806 49.4797 197.799 52.9634C195.791 56.447 193.016 59.1926 189.474 61.2001C185.99 63.1486 181.916 64.1229 177.251 64.1229ZM177.428 54.2919C179.79 54.2919 181.827 53.7014 183.54 52.5205C185.311 51.2806 186.698 49.6568 187.702 47.6493C188.706 45.5827 189.208 43.339 189.208 40.9182C189.208 38.1431 188.647 35.7813 187.525 33.8328C186.462 31.8843 185.045 30.4082 183.274 29.4044C181.502 28.4006 179.554 27.8988 177.428 27.8988C175.126 27.8988 173.089 28.4597 171.317 29.5815C169.605 30.7034 168.247 32.2681 167.243 34.2756C166.298 36.2241 165.826 38.4973 165.826 41.0953C165.826 43.6933 166.328 45.996 167.332 48.0036C168.394 50.0111 169.812 51.5758 171.583 52.6977C173.354 53.7605 175.303 54.2919 177.428 54.2919Z" fill="#080A1F"/>
<path d="M209.138 63.0601V19.1306H220.386V24.2675C221.922 22.2009 223.959 20.6657 226.498 19.662C229.096 18.5992 231.693 18.0678 234.291 18.0678C239.369 18.0678 243.532 19.721 246.779 23.0275C250.027 26.275 251.651 30.9986 251.651 37.1983V63.0601H240.403V38.704C240.403 35.3975 239.546 32.7404 237.834 30.7329C236.181 28.6663 233.731 27.6331 230.483 27.6331C227.236 27.6331 224.726 28.6663 222.955 30.7329C221.243 32.7404 220.386 35.3975 220.386 38.704V63.0601H209.138Z" fill="#080A1F"/>
<path d="M277.824 64.1229C274.046 64.1229 270.828 63.3258 268.171 61.7315C265.514 60.0783 263.477 57.8346 262.059 55.0004C260.642 52.1072 259.934 48.8302 259.934 45.1694V19.1306H271.182V43.4866C271.182 46.7341 272.009 49.3911 273.662 51.4577C275.374 53.5243 277.854 54.5576 281.101 54.5576C284.467 54.5576 286.976 53.5538 288.63 51.5463C290.283 49.5387 291.11 46.8522 291.11 43.4866V19.1306H302.446V63.0601H291.11V57.9231C289.633 59.9307 287.685 61.4658 285.264 62.5286C282.902 63.5915 280.422 64.1229 277.824 64.1229Z" fill="#080A1F"/>
<path d="M330.126 64.1229C326.819 64.1229 323.719 63.5324 320.826 62.3515C317.933 61.1116 315.542 59.3697 313.652 57.126C311.822 54.8823 310.818 52.2548 310.641 49.2435H321.977C322.273 51.133 323.188 52.6091 324.723 53.6719C326.317 54.7347 328.089 55.2661 330.037 55.2661C331.69 55.2661 333.225 54.9118 334.643 54.2033C336.119 53.4357 336.857 52.2548 336.857 50.6606C336.857 49.4207 336.325 48.4464 335.263 47.7379C334.2 47.0293 332.96 46.4684 331.543 46.0551C330.126 45.6418 328.827 45.2875 327.646 44.9923C324.693 44.2837 322.007 43.4571 319.586 42.5124C317.165 41.5086 315.246 40.1506 313.829 38.4383C312.412 36.6669 311.704 34.3347 311.704 31.4415C311.704 28.6073 312.501 26.1865 314.095 24.1789C315.748 22.1714 317.903 20.6657 320.56 19.662C323.276 18.5992 326.199 18.0678 329.329 18.0678C334.229 18.0678 338.362 19.3077 341.728 21.7876C345.094 24.2675 346.924 27.9283 347.219 32.77H336.503C336.325 30.8805 335.528 29.4635 334.111 28.5187C332.753 27.515 331.041 27.0131 328.974 27.0131C327.321 27.0131 325.845 27.3083 324.546 27.8988C323.247 28.4892 322.597 29.6111 322.597 31.2643C322.597 32.4452 323.129 33.4195 324.192 34.187C325.254 34.8956 326.524 35.486 328 35.9584C329.476 36.3717 330.775 36.726 331.897 37.0212C334.967 37.7888 337.654 38.6745 339.957 39.6782C342.318 40.682 344.178 42.04 345.536 43.7523C346.894 45.4646 347.603 47.7674 347.662 50.6606C347.662 53.5538 346.835 56.0042 345.182 58.0117C343.588 60.0192 341.462 61.5544 338.805 62.6172C336.148 63.621 333.255 64.1229 330.126 64.1229Z" fill="#080A1F"/>
<path d="M355.689 63.0601V51.1034H368V63.0601H355.689Z" fill="#6B95FF"/>
<path d="M14.6475 91.4775C14.6475 92.7128 14.4486 93.8367 14.0507 94.8495C13.6529 95.8622 13.0913 96.7291 12.3658 97.4503C11.6404 98.1715 10.7667 98.7316 9.74488 99.1305C8.73083 99.5218 7.60756 99.7174 6.37509 99.7174H0.115234V83.2261H6.37509C7.60756 83.2261 8.73083 83.4256 9.74488 83.8246C10.7667 84.2158 11.6404 84.7759 12.3658 85.5048C13.0913 86.2259 13.6529 87.0929 14.0507 88.1056C14.4486 89.1183 14.6475 90.2423 14.6475 91.4775ZM12.319 91.4775C12.319 90.4648 12.1786 89.5595 11.8978 88.7616C11.617 87.9637 11.2192 87.2885 10.7043 86.7361C10.1895 86.1837 9.56547 85.7618 8.83223 85.4702C8.09899 85.1787 7.27994 85.0329 6.37509 85.0329H2.38516V97.9107H6.37509C7.27994 97.9107 8.09899 97.7649 8.83223 97.4733C9.56547 97.1818 10.1895 96.7637 10.7043 96.2189C11.2192 95.6665 11.617 94.9914 11.8978 94.1935C12.1786 93.3956 12.319 92.4903 12.319 91.4775Z" fill="#080A1F"/>
<path d="M32.7073 97.8991L32.6956 99.7174H22.3639V83.2261H32.6956V85.0444H24.6338V90.5224H31.1628V92.2716H24.6338V97.8991H32.7073Z" fill="#080A1F"/>
<path d="M48.8928 85.804C48.8226 85.9191 48.7446 86.0073 48.6587 86.0687C48.5807 86.1224 48.4832 86.1492 48.3662 86.1492C48.2336 86.1492 48.0776 86.084 47.8982 85.9536C47.7188 85.8232 47.4926 85.6812 47.2196 85.5278C46.9543 85.3667 46.6306 85.2209 46.2484 85.0905C45.874 84.96 45.4177 84.8948 44.8794 84.8948C44.3724 84.8948 43.9239 84.9639 43.5339 85.102C43.1516 85.2324 42.8279 85.4127 42.5627 85.6429C42.3053 85.873 42.1103 86.1454 41.9777 86.4599C41.8451 86.7668 41.7788 87.1006 41.7788 87.4612C41.7788 87.9215 41.8919 88.3051 42.1181 88.612C42.3521 88.9112 42.6563 89.1682 43.0307 89.383C43.4129 89.5979 43.842 89.7858 44.3178 89.9469C44.8014 90.1004 45.2929 90.2615 45.7921 90.4303C46.2991 90.5991 46.7905 90.7909 47.2664 91.0057C47.75 91.2128 48.179 91.4775 48.5534 91.7998C48.9357 92.122 49.2399 92.5171 49.4661 92.9851C49.7001 93.4531 49.8171 94.0285 49.8171 94.7114C49.8171 95.4325 49.6923 96.1115 49.4427 96.7483C49.1931 97.3774 48.8265 97.926 48.3428 98.394C47.867 98.862 47.2781 99.2303 46.576 99.4988C45.8818 99.7673 45.09 99.9016 44.2008 99.9016C43.1087 99.9016 42.1181 99.7098 41.2288 99.3262C40.3396 98.9349 39.579 98.4093 38.9472 97.7495L39.6024 96.6908C39.6648 96.6064 39.7389 96.5373 39.8247 96.4836C39.9183 96.4222 40.0198 96.3916 40.129 96.3916C40.2304 96.3916 40.3435 96.4338 40.4683 96.5182C40.6009 96.5949 40.7491 96.6946 40.9129 96.8174C41.0767 96.9401 41.2639 97.0744 41.4745 97.2202C41.6851 97.3659 41.9231 97.5002 42.1883 97.6229C42.4613 97.7457 42.7694 97.8493 43.1126 97.9337C43.4558 98.0104 43.842 98.0487 44.271 98.0487C44.8092 98.0487 45.289 97.9759 45.7102 97.8301C46.1314 97.6843 46.4863 97.481 46.7749 97.2202C47.0714 96.9516 47.2976 96.6332 47.4536 96.265C47.6096 95.8967 47.6876 95.4862 47.6876 95.0336C47.6876 94.5349 47.5706 94.1283 47.3366 93.8137C47.1104 93.4915 46.81 93.223 46.4356 93.0081C46.0612 92.7933 45.6322 92.613 45.1485 92.4672C44.6649 92.3138 44.1735 92.1604 43.6743 92.0069C43.175 91.8458 42.6836 91.6617 42.2 91.4545C41.7164 91.2474 41.2873 90.9788 40.9129 90.6489C40.5385 90.319 40.2343 89.9086 40.0003 89.4176C39.774 88.9189 39.6609 88.3051 39.6609 87.5762C39.6609 86.9932 39.774 86.4293 40.0003 85.8845C40.2343 85.3398 40.5697 84.8565 41.0065 84.4345C41.4511 84.0125 41.9933 83.6749 42.6329 83.4218C43.2803 83.1686 44.0214 83.042 44.856 83.042C45.7921 83.042 46.6423 83.1878 47.4068 83.4793C48.179 83.7708 48.8577 84.1928 49.4427 84.7452L48.8928 85.804Z" fill="#080A1F"/>
<path d="M59.7385 99.7174H57.4686V83.2261H59.7385V99.7174Z" fill="#080A1F"/>
<path d="M82.0932 91.7883V98.1178C81.2508 98.7162 80.3498 99.165 79.3904 99.4643C78.4387 99.7558 77.3934 99.9016 76.2546 99.9016C74.9051 99.9016 73.6882 99.6983 72.604 99.2916C71.5197 98.8773 70.5915 98.3019 69.8192 97.5654C69.0548 96.8212 68.4658 95.9312 68.0524 94.8955C67.639 93.8597 67.4323 92.7204 67.4323 91.4775C67.4323 90.2193 67.6312 89.0723 68.029 88.0366C68.4346 87.0008 69.008 86.1147 69.749 85.3782C70.4901 84.634 71.391 84.0586 72.4519 83.6519C73.5127 83.2453 74.6984 83.042 76.0089 83.042C76.6719 83.042 77.2881 83.0919 77.8576 83.1916C78.427 83.2837 78.9535 83.4218 79.4372 83.6059C79.9208 83.7824 80.3693 84.001 80.7827 84.2619C81.1962 84.515 81.5823 84.8028 81.9411 85.125L81.2976 86.1377C81.1962 86.2912 81.0636 86.3909 80.8997 86.4369C80.7437 86.4753 80.5682 86.4369 80.3732 86.3218C80.186 86.2144 79.9715 86.084 79.7297 85.9306C79.4879 85.7771 79.1915 85.6313 78.8404 85.4932C78.4972 85.3475 78.0877 85.2247 77.6119 85.125C77.1438 85.0252 76.5861 84.9754 75.9387 84.9754C74.9948 84.9754 74.1407 85.1288 73.3762 85.4357C72.6118 85.7349 71.9604 86.1684 71.4222 86.7361C70.884 87.2962 70.4706 87.979 70.1819 88.7846C69.8933 89.5825 69.749 90.4802 69.749 91.4775C69.749 92.5133 69.8972 93.4416 70.1936 94.2625C70.4979 95.0758 70.9269 95.7701 71.4807 96.3455C72.0423 96.9133 72.721 97.3467 73.5166 97.646C74.3123 97.9452 75.2054 98.0948 76.1961 98.0948C76.9761 98.0948 77.6665 98.0104 78.2671 97.8416C78.8755 97.6651 79.4684 97.4235 80.0456 97.1166V93.4915H77.4364C77.2881 93.4915 77.1672 93.4493 77.0736 93.3649C76.9878 93.2805 76.9449 93.1769 76.9449 93.0542V91.7883H82.0932Z" fill="#080A1F"/>
<path d="M103.598 83.2261V99.7174H102.463C102.284 99.7174 102.132 99.6868 102.007 99.6254C101.89 99.564 101.773 99.4604 101.656 99.3147L91.9561 86.8857C91.9717 87.0776 91.9835 87.2655 91.9912 87.4497C91.9991 87.6338 92.003 87.8064 92.003 87.9675V99.7174H90.0138V83.2261H91.1839C91.2853 83.2261 91.3711 83.2338 91.4413 83.2491C91.5115 83.2568 91.5739 83.276 91.6285 83.3067C91.6831 83.3297 91.7377 83.3681 91.7923 83.4218C91.8469 83.4678 91.9054 83.5292 91.9678 83.6059L101.668 96.0233C101.652 95.8238 101.636 95.632 101.621 95.4479C101.613 95.2561 101.609 95.0758 101.609 94.907V83.2261H103.598Z" fill="#080A1F"/>
<path d="M126.275 91.5926C125.448 92.0223 124.824 92.544 124.403 93.1577C123.989 93.7715 123.783 94.439 123.783 95.1602C123.783 95.6589 123.876 96.1 124.064 96.4836C124.251 96.8596 124.496 97.178 124.801 97.4388C125.105 97.6997 125.452 97.8991 125.842 98.0372C126.232 98.1677 126.63 98.2329 127.035 98.2329C127.909 98.2329 128.693 98.0756 129.387 97.761C130.089 97.4465 130.702 97.0245 131.224 96.4951L126.275 91.5926ZM137.086 99.7174H135.062C134.836 99.7174 134.653 99.6906 134.512 99.6369C134.372 99.5832 134.22 99.4719 134.056 99.3031L132.359 97.6229C131.626 98.3211 130.78 98.8773 129.82 99.2916C128.869 99.6983 127.819 99.9016 126.673 99.9016C126.049 99.9016 125.436 99.798 124.836 99.5909C124.243 99.3837 123.709 99.0845 123.233 98.6932C122.757 98.2943 122.375 97.8109 122.086 97.2432C121.797 96.6754 121.653 96.0348 121.653 95.3213C121.653 94.7842 121.743 94.2779 121.922 93.8022C122.109 93.3189 122.367 92.8739 122.695 92.4672C123.022 92.0606 123.408 91.6962 123.853 91.374C124.298 91.0517 124.785 90.7755 125.315 90.5454C124.84 89.9469 124.489 89.3715 124.262 88.8191C124.036 88.2591 123.923 87.6798 123.923 87.0814C123.923 86.5213 124.025 85.9958 124.227 85.5048C124.438 85.0137 124.738 84.5879 125.128 84.2273C125.518 83.8591 125.99 83.5714 126.544 83.3642C127.106 83.1494 127.734 83.042 128.428 83.042C129.044 83.042 129.606 83.1417 130.113 83.3412C130.62 83.533 131.057 83.79 131.423 84.1123C131.79 84.4345 132.078 84.8104 132.289 85.2401C132.507 85.662 132.632 86.1032 132.663 86.5635L131.365 86.8167C131.107 86.8781 130.916 86.7592 130.791 86.4599C130.737 86.2605 130.647 86.0533 130.522 85.8385C130.405 85.6237 130.249 85.428 130.054 85.2516C129.867 85.0751 129.637 84.9293 129.364 84.8143C129.099 84.6992 128.787 84.6416 128.428 84.6416C128.038 84.6416 127.683 84.703 127.363 84.8258C127.051 84.9485 126.782 85.1211 126.556 85.3436C126.337 85.5585 126.17 85.8155 126.053 86.1147C125.936 86.4062 125.877 86.7246 125.877 87.0699C125.877 87.3384 125.908 87.5954 125.971 87.8409C126.033 88.0864 126.131 88.3358 126.263 88.589C126.404 88.8421 126.579 89.0992 126.79 89.36C127 89.6209 127.254 89.8971 127.55 90.1886L132.371 95.0106C132.667 94.4889 132.905 93.948 133.085 93.3879C133.264 92.8202 133.381 92.2563 133.436 91.6962C133.451 91.5504 133.498 91.4353 133.576 91.3509C133.654 91.2666 133.763 91.2244 133.904 91.2244H135.179C135.171 92.1067 135.031 92.9736 134.758 93.8252C134.485 94.6692 134.091 95.4632 133.576 96.2074L137.086 99.7174Z" fill="#080A1F"/>
<path d="M168.837 91.4775C168.837 92.7128 168.638 93.8367 168.24 94.8495C167.842 95.8622 167.28 96.7291 166.555 97.4503C165.83 98.1715 164.956 98.7316 163.934 99.1305C162.92 99.5218 161.797 99.7174 160.564 99.7174H154.304V83.2261H160.564C161.797 83.2261 162.92 83.4256 163.934 83.8246C164.956 84.2158 165.83 84.7759 166.555 85.5048C167.28 86.2259 167.842 87.0929 168.24 88.1056C168.638 89.1183 168.837 90.2423 168.837 91.4775ZM166.508 91.4775C166.508 90.4648 166.368 89.5595 166.087 88.7616C165.806 87.9637 165.408 87.2885 164.894 86.7361C164.379 86.1837 163.755 85.7618 163.021 85.4702C162.288 85.1787 161.469 85.0329 160.564 85.0329H156.574V97.9107H160.564C161.469 97.9107 162.288 97.7649 163.021 97.4733C163.755 97.1818 164.379 96.7637 164.894 96.2189C165.408 95.6665 165.806 94.9914 166.087 94.1935C166.368 93.3956 166.508 92.4903 166.508 91.4775Z" fill="#080A1F"/>
<path d="M186.896 97.8991L186.885 99.7174H176.553V83.2261H186.885V85.0444H178.823V90.5224H185.352V92.2716H178.823V97.8991H186.896Z" fill="#080A1F"/>
<path d="M208.137 83.2261L201.303 99.7174H199.268L192.434 83.2261H194.248C194.451 83.2261 194.615 83.276 194.739 83.3757C194.864 83.4755 194.958 83.6021 195.02 83.7555L199.747 95.3903C199.849 95.6512 199.946 95.9351 200.04 96.242C200.141 96.5488 200.231 96.8711 200.309 97.2086C200.387 96.8711 200.469 96.5488 200.555 96.242C200.64 95.9351 200.734 95.6512 200.835 95.3903L205.551 83.7555C205.598 83.6251 205.687 83.5062 205.82 83.3987C205.96 83.2837 206.128 83.2261 206.323 83.2261H208.137Z" fill="#080A1F"/>
<path d="M225.132 97.8991L225.12 99.7174H214.789V83.2261H225.12V85.0444H217.059V90.5224H223.588V92.2716H217.059V97.8991H225.132Z" fill="#080A1F"/>
<path d="M242.254 97.8416V99.7174H232.741V83.2261H234.999V97.8416H242.254Z" fill="#080A1F"/>
<path d="M263.923 91.4775C263.923 92.7128 263.724 93.8482 263.326 94.884C262.928 95.9121 262.366 96.7982 261.641 97.5424C260.915 98.2866 260.042 98.8658 259.02 99.2801C258.006 99.6868 256.883 99.8901 255.65 99.8901C254.418 99.8901 253.294 99.6868 252.28 99.2801C251.266 98.8658 250.397 98.2866 249.671 97.5424C248.946 96.7982 248.384 95.9121 247.986 94.884C247.588 93.8482 247.389 92.7128 247.389 91.4775C247.389 90.2423 247.588 89.1107 247.986 88.0826C248.384 87.0469 248.946 86.1569 249.671 85.4127C250.397 84.6608 251.266 84.0777 252.28 83.6634C253.294 83.2491 254.418 83.042 255.65 83.042C256.883 83.042 258.006 83.2491 259.02 83.6634C260.042 84.0777 260.915 84.6608 261.641 85.4127C262.366 86.1569 262.928 87.0469 263.326 88.0826C263.724 89.1107 263.923 90.2423 263.923 91.4775ZM261.594 91.4775C261.594 90.4648 261.454 89.5557 261.173 88.7501C260.892 87.9445 260.494 87.2655 259.979 86.7131C259.465 86.1531 258.841 85.7234 258.107 85.4242C257.374 85.125 256.555 84.9754 255.65 84.9754C254.753 84.9754 253.938 85.125 253.205 85.4242C252.471 85.7234 251.844 86.1531 251.321 86.7131C250.806 87.2655 250.408 87.9445 250.127 88.7501C249.847 89.5557 249.706 90.4648 249.706 91.4775C249.706 92.4903 249.847 93.3994 250.127 94.205C250.408 95.0029 250.806 95.6819 251.321 96.242C251.844 96.7943 252.471 97.2202 253.205 97.5194C253.938 97.8109 254.753 97.9567 255.65 97.9567C256.555 97.9567 257.374 97.8109 258.107 97.5194C258.841 97.2202 259.465 96.7943 259.979 96.242C260.494 95.6819 260.892 95.0029 261.173 94.205C261.454 93.3994 261.594 92.4903 261.594 91.4775Z" fill="#080A1F"/>
<path d="M276.566 91.7768C277.213 91.7768 277.783 91.6924 278.274 91.5236C278.773 91.3548 279.191 91.1208 279.526 90.8216C279.869 90.5147 280.127 90.1503 280.298 89.7283C280.47 89.3063 280.556 88.8422 280.556 88.3358C280.556 87.2847 280.224 86.4638 279.561 85.873C278.906 85.2823 277.907 84.9869 276.566 84.9869H273.875V91.7768H276.566ZM276.566 83.2261C277.627 83.2261 278.547 83.3489 279.327 83.5944C280.115 83.8322 280.766 84.1736 281.281 84.6186C281.796 85.0636 282.178 85.6007 282.428 86.2298C282.685 86.8589 282.814 87.5609 282.814 88.3358C282.814 89.103 282.677 89.805 282.404 90.4418C282.131 91.0786 281.73 91.6271 281.199 92.0875C280.677 92.5478 280.025 92.9084 279.245 93.1693C278.473 93.4224 277.58 93.549 276.566 93.549H273.875V99.7174H271.616V83.2261H276.566Z" fill="#080A1F"/>
<path d="M307.563 83.2261V99.7174H305.574V87.5993C305.574 87.4381 305.578 87.2655 305.585 87.0814C305.601 86.8973 305.617 86.7093 305.632 86.5175L299.876 96.8289C299.696 97.1741 299.423 97.3467 299.056 97.3467H298.729C298.362 97.3467 298.089 97.1741 297.91 96.8289L292.036 86.4715C292.083 86.8781 292.106 87.254 292.106 87.5993V99.7174H290.117V83.2261H291.79C291.993 83.2261 292.149 83.2453 292.258 83.2837C292.368 83.322 292.473 83.4294 292.574 83.6059L298.366 93.7562C298.46 93.9403 298.549 94.1321 298.635 94.3316C298.729 94.5311 298.815 94.7344 298.893 94.9415C298.971 94.7344 299.053 94.5311 299.138 94.3316C299.224 94.1244 299.318 93.9288 299.419 93.7447L305.106 83.6059C305.199 83.4294 305.301 83.322 305.41 83.2837C305.527 83.2453 305.687 83.2261 305.89 83.2261H307.563Z" fill="#080A1F"/>
<path d="M326.64 97.8991L326.628 99.7174H316.297V83.2261H326.628V85.0444H318.566V90.5224H325.095V92.2716H318.566V97.8991H326.64Z" fill="#080A1F"/>
<path d="M347.833 83.2261V99.7174H346.698C346.519 99.7174 346.367 99.6868 346.242 99.6254C346.125 99.564 346.008 99.4604 345.891 99.3147L336.191 86.8857C336.207 87.0776 336.218 87.2655 336.226 87.4497C336.234 87.6338 336.238 87.8064 336.238 87.9675V99.7174H334.249V83.2261H335.419C335.52 83.2261 335.606 83.2338 335.676 83.2491C335.747 83.2568 335.809 83.276 335.863 83.3067C335.918 83.3297 335.973 83.3681 336.027 83.4218C336.082 83.4678 336.14 83.5292 336.203 83.6059L345.903 96.0233C345.887 95.8238 345.871 95.632 345.856 95.4479C345.848 95.2561 345.844 95.0758 345.844 94.907V83.2261H347.833Z" fill="#080A1F"/>
<path d="M367.904 85.102H362.475V99.7174H360.217V85.102H354.776V83.2261H367.904V85.102Z" fill="#080A1F"/>
</svg>
