<svg width="95" height="95" viewBox="0 0 95 95" fill="none" xmlns="http://www.w3.org/2000/svg">
<g clip-path="url(#clip0_333_884)">
<rect width="95" height="95" rx="20" fill="white"/>
<rect width="95" height="95" rx="20" fill="white"/>
<g clip-path="url(#clip1_333_884)">
<path d="M61.3299 18.2518L54.4762 25.1178L69.8816 40.5232L76.7353 33.6695C79.4301 30.9748 79.4301 26.6189 76.7353 23.9242L71.0752 18.2518C68.3805 15.557 64.0246 15.557 61.3299 18.2518ZM51.4369 27.6402L50.3049 27.9848L32.5738 33.3004C30.1252 34.0387 28.181 35.909 27.3689 38.3453L16.467 70.8543C15.9994 72.2447 16.3439 73.7951 17.3652 74.841L36.2652 55.9533C35.8961 55.1781 35.6869 54.3168 35.6869 53.4063C35.6869 50.1455 38.3324 47.5 41.5931 47.5C44.8539 47.5 47.4994 50.1455 47.4994 53.4063C47.4994 56.667 44.8539 59.3125 41.5931 59.3125C40.6826 59.3125 39.8213 59.1033 39.0461 58.7342L20.1461 77.6342C21.2043 78.6555 22.7424 79.0123 24.1328 78.5324L56.6541 67.6305C59.0781 66.8184 60.9607 64.8742 61.699 62.4256L67.0146 44.6945L67.3592 43.5625L51.4369 27.6402Z" fill="#7198FA"/>
</g>
</g>
<defs>
<clipPath id="clip0_333_884">
<rect width="95" height="95" rx="20" fill="white"/>
</clipPath>
<clipPath id="clip1_333_884">
<rect width="63" height="63" fill="white" transform="translate(16 16)"/>
</clipPath>
</defs>
</svg>
