<svg width="95" height="95" viewBox="0 0 95 95" fill="none" xmlns="http://www.w3.org/2000/svg">
<rect width="95" height="95" rx="20" fill="white"/>
<g clip-path="url(#clip0_332_572)">
<path d="M25.3333 22C21.8401 22 19 24.8588 19 28.375V57.0625C19 60.5787 21.8401 63.4375 25.3333 63.4375H42.75L41.6911 66.625H34.8333C33.0818 66.625 31.6667 68.0494 31.6667 69.8125C31.6667 71.5756 33.0818 73 34.8333 73H60.1667C61.9182 73 63.3333 71.5756 63.3333 69.8125C63.3333 68.0494 61.9182 66.625 60.1667 66.625H53.3089L52.25 63.4375H69.6667C73.1599 63.4375 76 60.5787 76 57.0625V28.375C76 24.8588 73.1599 22 69.6667 22H25.3333ZM69.6667 28.375V50.6875H25.3333V28.375H69.6667Z" fill="#7198FA"/>
</g>
<defs>
<clipPath id="clip0_332_572">
<rect width="57" height="51" fill="white" transform="translate(19 22)"/>
</clipPath>
</defs>
</svg>
