<svg width="95" height="95" viewBox="0 0 95 95" fill="none" xmlns="http://www.w3.org/2000/svg">
<g clip-path="url(#clip0_333_810)">
<rect width="95" height="95" rx="20" fill="white"/>
<rect width="95" height="95" rx="20" fill="white"/>
<path d="M32.8333 16C28.5128 16 25 19.5314 25 23.875V71.125C25 75.4686 28.5128 79 32.8333 79H60.25C64.5706 79 68.0833 75.4686 68.0833 71.125V23.875C68.0833 19.5314 64.5706 16 60.25 16H32.8333ZM42.625 69.1562H50.4583C51.5354 69.1562 52.4167 70.0422 52.4167 71.125C52.4167 72.2078 51.5354 73.0938 50.4583 73.0938H42.625C41.5479 73.0938 40.6667 72.2078 40.6667 71.125C40.6667 70.0422 41.5479 69.1562 42.625 69.1562Z" fill="#7198FA"/>
<rect x="30" y="22" width="33" height="42" rx="3" fill="white"/>
</g>
<defs>
<clipPath id="clip0_333_810">
<rect width="95" height="95" rx="20" fill="white"/>
</clipPath>
</defs>
</svg>
